<svg xmlns="http://www.w3.org/2000/svg" version="1.1" 
    width = "350"
    height = "480"
    viewBox = "0 0 175 240"
>
<title>
    Logarithmic spiral
</title>

<style>
.line {
    fill: none;
    stroke-width: 4px;
}
.dashed {
    stroke-dasharray: 10 10;
}
.spiral-1 {
    stroke: #88f;
}
.spiral-2 {
    stroke-dasharray: 2 2;
    stroke: #00a;
}
</style>
<defs>
  <path class="line" id="spiral-path" d=" 
M 0 0 L -0.010724 -0.000000 L -0.011216 -0.001179 L -0.011601 -0.002466 L -0.011863 -0.003855 L -0.011984 -0.005336 L -0.011948 -0.006898 L -0.011738 -0.008528 L -0.011340 -0.010210 L -0.010738 -0.011926 L -0.009920 -0.013654 L -0.008875 -0.015372 L -0.007593 -0.017053 L -0.006067 -0.018671 L -0.004293 -0.020195 L -0.002270 -0.021595 L 0.000000 -0.022836 L 0.002510 -0.023884 L 0.005251 -0.024705 L 0.008208 -0.025263 L 0.011362 -0.025520 L 0.014690 -0.025443 L 0.018161 -0.024997 L 0.021743 -0.024148 L 0.025396 -0.022867 L 0.029076 -0.021125 L 0.032734 -0.018899 L 0.036315 -0.016168 L 0.039760 -0.012919 L 0.043006 -0.009141 L 0.045986 -0.004833 L 0.048629 0.000000 L 0.050862 0.005346 L 0.052610 0.011183 L 0.053796 0.017480 L 0.054345 0.024196 L 0.054181 0.031282 L 0.053230 0.038674 L 0.051423 0.046302 L 0.048695 0.054081 L 0.044986 0.061918 L 0.040245 0.069707 L 0.034430 0.077332 L 0.027510 0.084668 L 0.019466 0.091581 L 0.010292 0.097926 L -0.000000 0.103554 L -0.011384 0.108310 L -0.023813 0.112032 L -0.037223 0.114559 L -0.051526 0.115728 L -0.066614 0.115379 L -0.082357 0.113354 L -0.098600 0.109506 L -0.115166 0.103696 L -0.131854 0.095797 L -0.148440 0.085702 L -0.164678 0.073319 L -0.180300 0.058583 L -0.195020 0.041453 L -0.208533 0.021918 L -0.220519 -0.000000 L -0.230646 -0.024242 L -0.238573 -0.050710 L -0.243954 -0.079265 L -0.246443 -0.109724 L -0.245698 -0.141854 L -0.241387 -0.175378 L -0.233193 -0.209968 L -0.220820 -0.245245 L -0.204000 -0.280782 L -0.182502 -0.316103 L -0.156133 -0.350681 L -0.124753 -0.383949 L -0.088274 -0.415295 L -0.046674 -0.444071 L 0.000000 -0.469594 L 0.051623 -0.491159 L 0.107987 -0.508040 L 0.168795 -0.519499 L 0.233656 -0.524800 L 0.302078 -0.523214 L 0.373467 -0.514034 L 0.447126 -0.496584 L 0.522249 -0.470235 L 0.597925 -0.434418 L 0.673139 -0.388637 L 0.746775 -0.332486 L 0.817619 -0.265660 L 0.884370 -0.187979 L 0.945647 -0.099392 L 1.000000 0.000000 L 1.045922 0.109931 L 1.081869 0.229958 L 1.106272 0.359449 L 1.117560 0.497570 L 1.114182 0.643274 L 1.094633 0.795297 L 1.057473 0.952153 L 1.001364 1.112127 L 0.925092 1.273280 L 0.827602 1.433448 L 0.708027 1.590255 L 0.565723 1.741117 L 0.400300 1.883264 L 0.211654 2.013753 L 0.000000 2.129497 L -0.234097 2.227289 L -0.489696 2.303837 L -0.765446 2.355802 L -1.059573 2.379840 L -1.369849 2.372648 L -1.693583 2.331017 L -2.027607 2.251886 L -2.368272 2.132402 L -2.711445 1.969980 L -3.052523 1.762375 L -3.386442 1.507741 L -3.707703 1.204706 L -4.010404 0.852438 L -4.288281 0.450717 L -4.534757 0.000000 L -4.743004 -0.498510 L -4.906013 -1.042805 L -5.016673 -1.630016 L -5.067861 -2.256357 L -5.052547 -2.917089 L -4.963894 -3.606480 L -4.795384 -4.317784 L -4.540943 -5.043228 L -4.195067 -5.774015 L -3.752973 -6.500339 L -3.210730 -7.211418 L -2.565417 -7.895542 L -1.815264 -8.540144 L -0.959799 -9.131882 L -0.000000 -9.656751 L 1.061575 -10.100213 L 2.220651 -10.447340 L 3.471114 -10.682989 L 4.804906 -10.791995 L 6.211933 -10.759383 L 7.679988 -10.570597 L 9.194707 -10.211757 L 10.739538 -9.669923 L 12.295747 -8.933383 L 13.842452 -7.991943 L 15.356693 -6.837240 L 16.813533 -5.463048 L 18.186210 -3.865598 L 19.446314 -2.043890 L 20.564023 -0.000000 L 21.508373 2.260621 L 22.247578 4.728869 L 22.749392 7.391726 L 22.981521 10.232032 L 22.912072 13.228291 L 22.510053 16.354511 L 21.745904 19.580100 L 20.592072 22.869813 L 19.023611 26.183755 L 17.018819 29.477459 L 14.559882 32.702030 L 11.633544 35.804368 L 8.231780 38.727478 L 4.352457 41.410865 L 0.000000 43.791023 L -4.813986 45.802014 L -10.070111 47.376148 L -15.740657 48.444761 L -21.789082 48.939079 L -28.169606 48.791188 L -34.826881 47.935089 L -41.695763 46.307836 L -48.701196 43.850753 L -55.758225 40.510722 L -62.772159 36.241523 L -69.638872 31.005224 L -76.245291 24.773597 L -82.470045 17.529549 L -88.184310 9.268544 L -93.252848 0.000000 
" transform="translate(0 -193.787523)" vector-effect="non-scaling-stroke" />
  <g id="spiral">
    <use href="#spiral-path" class="spiral-1"/>
    <use href="#spiral-path" class="spiral-2"/>
  </g>

  <path id="tangent-path" class="line" d="M 0 0 L 93.252848 193.787523" vector-effect="non-scaling-stroke" />
  <g id="tangent">
    <use href="#tangent-path" class="spiral-1"/>
    <use href="#tangent-path" class="spiral-2"/>
  </g>

</defs>
<g transform="matrix(1 0 0 -1 125 215)">

<path class="dashed line" d="M -93.252848 0 H 0 V 193.787523"
style="stroke:grey"
vector-effect="non-scaling-stroke" />

<!--pravy uhel-->
<path class="line" d="M 0 0 H -10 V 10 H 0 V 0 Z"
vector-effect="non-scaling-stroke"
style="stroke:grey"/>

<path class="line"
style="stroke:black"
vector-effect="non-scaling-stroke"
d="M -93.252848 0 L 0 193.787523" />

<g transform="translate(0 193.787523)">
    <use href="#spiral">
    <animateTransform
        id="zoom"
        attributeName="transform"
        type="scale"
        dur="10s"
        fill="freeze"
        values="1;0;0;1;1" from="1" to="1"
        keyTimes="0;0.42;0.45;0.87;1"
        begin="0s;zoom.end"
        calcMode="linear"
        />
        </use>
</g>

<!--rozbalena spirala (cerna usecka)-->
<g transform="translate(-93.252848 0)">
    <use href="#tangent">
    <animateTransform
        attributeName="transform"
        type="scale"
        dur="10s"
        fill="freeze"
        values="0;1;1;0;0" from="0" to="0"
        keyTimes="0;0.42;0.45;0.87;1"
        calcMode="linear"
        begin="zoom.begin"
        />
        </use>
</g>
</g> 
</svg>