<svg xmlns="http://www.w3.org/2000/svg" version="1.1"
        width="342" height="474" viewBox="-44 -66 228 316">

    <title>
        Klimadiagram: Praha-Klementinum
    </title>
    <desc>
        
    </desc>
    
    <style>
    path {
        fill: none;
        stroke-width: 1;
        stroke: #000000;
        stroke-linejoin: round;
        stroke-linecap: square;
    }
    .dashed {
        stroke-dasharray: 0 2;
        stroke-linecap: round;
    }
    .temperature {
        fill: none;
        stroke-width: 2;
        stroke: #ff0000;
        stroke-linejoin: round;
        stroke-linecap: round;    
    }
    rect {
        fill: #0000ff;
        stroke: none;
    }
    text {
        fill: #000000;
        stroke: none;
        font-family: Verdana, Helvetica, Arial, sans-serif;
        font-weight: bold;
    }
    .number {
        font-size: 6px;
        dominant-baseline: middle;
    }
    .month {
        font-size: 6px;
        dominant-baseline: hanging;
        text-anchor: middle;
    }
    .label {
        font-size: 8px;
        text-anchor: middle;
    }
    .title {
        font-size: 10px;
    }
    .year {
        font-size: 8px;
    }
    </style>
    
    <!--srážky-->
    <rect x="2" y="191.335" width="7.66667" height="8.6646"/>
    <rect x="13.6667" y="192.242" width="7.66667" height="7.75761"/>
    <rect x="25.3333" y="189.398" width="7.66667" height="10.602"/>
    <rect x="37" y="185.863" width="7.66667" height="14.1373"/>
    <rect x="48.6667" y="177.585" width="7.66667" height="22.4151"/>
    <rect x="60.3333" y="173.416" width="7.66667" height="26.5841"/>
    <rect x="72" y="174.238" width="7.66667" height="25.7616"/>
    <rect x="83.6667" y="176.189" width="7.66667" height="23.8105"/>
    <rect x="95.3333" y="184.42" width="7.66667" height="15.5798"/>
    <rect x="107" y="187.973" width="7.66667" height="12.0266"/>
    <rect x="118.667" y="188.492" width="7.66667" height="11.5081"/>
    <rect x="130.333" y="189.99" width="7.66667" height="10.0096"/>
    <!--horizontální čáry-->
    <path class="dashed" d="M 0 0 h 140"/>
    <path class="dashed" d="M 0 20 h 140"/>
    <path class="dashed" d="M 0 40 h 140"/>
    <path class="dashed" d="M 0 60 h 140"/>
    <path class="dashed" d="M 0 80 h 140"/>
    <path d="M 0 100 h 140"/>
    <path class="dashed" d="M 0 120 h 140"/>
    <path class="dashed" d="M 0 140 h 140"/>
    <path class="dashed" d="M 0 160 h 140"/>
    <path class="dashed" d="M 0 180 h 140"/>
    <path d="M 0 200 h 140"/>
    <!--vertikální čáry-->
    <path d="M 0 0 v 200"/>
    <path class="dashed" d="M 11.6667 0 v 200"/>
    <path class="dashed" d="M 23.3333 0 v 200"/>
    <path class="dashed" d="M 35 0 v 200"/>
    <path class="dashed" d="M 46.6667 0 v 200"/>
    <path class="dashed" d="M 58.3333 0 v 200"/>
    <path class="dashed" d="M 70 0 v 200"/>
    <path class="dashed" d="M 81.6667 0 v 200"/>
    <path class="dashed" d="M 93.3333 0 v 200"/>
    <path class="dashed" d="M 105 0 v 200"/>
    <path class="dashed" d="M 116.667 0 v 200"/>
    <path class="dashed" d="M 128.333 0 v 200"/>
    <path d="M 140 0 v 200"/>
    <!--frflíky-->
    <path d="M 0 0 h -6"/>
    <path d="M 140 0 h 6"/>
    <path d="M 0 10 h -2.5"/>
    <path d="M 140 10 h 2.5"/>
    <path d="M 0 20 h -6"/>
    <path d="M 140 20 h 6"/>
    <path d="M 0 30 h -2.5"/>
    <path d="M 140 30 h 2.5"/>
    <path d="M 0 40 h -6"/>
    <path d="M 140 40 h 6"/>
    <path d="M 0 50 h -2.5"/>
    <path d="M 140 50 h 2.5"/>
    <path d="M 0 60 h -6"/>
    <path d="M 140 60 h 6"/>
    <path d="M 0 70 h -2.5"/>
    <path d="M 140 70 h 2.5"/>
    <path d="M 0 80 h -6"/>
    <path d="M 140 80 h 6"/>
    <path d="M 0 90 h -2.5"/>
    <path d="M 140 90 h 2.5"/>
    <path d="M 0 100 h -6"/>
    <path d="M 140 100 h 6"/>
    <path d="M 0 110 h -2.5"/>
    <path d="M 140 110 h 2.5"/>
    <path d="M 0 120 h -6"/>
    <path d="M 140 120 h 6"/>
    <path d="M 0 130 h -2.5"/>
    <path d="M 140 130 h 2.5"/>
    <path d="M 0 140 h -6"/>
    <path d="M 140 140 h 6"/>
    <path d="M 0 150 h -2.5"/>
    <path d="M 140 150 h 2.5"/>
    <path d="M 0 160 h -6"/>
    <path d="M 140 160 h 6"/>
    <path d="M 0 170 h -2.5"/>
    <path d="M 140 170 h 2.5"/>
    <path d="M 0 180 h -6"/>
    <path d="M 140 180 h 6"/>
    <path d="M 0 190 h -2.5"/>
    <path d="M 140 190 h 2.5"/>
    <path d="M 0 200 h -6"/>
    <path d="M 140 200 h 6"/>
    <!--teplotní křivka-->
    <path class="temperature" d="M 5.83333 102.07 L 17.5 98.7769 L 29.1667 91.589 L 40.8333 81.388 L 52.5 70.8889 L 64.1667 64.3067 L 75.8333 60.6713 L 87.5 61.676 L 99.1667 69.3712 L 110.833 80.2223 L 122.5 91.3859 L 134.167 98.6103"/>
    <!--čísla-->
    <text class="number" x="-8" y="0" text-anchor="end">500</text>
    <text class="number" x="148" y="0" text-anchor="start">50</text>
    <text class="number" x="-8" y="20" text-anchor="end">450</text>
    <text class="number" x="148" y="20" text-anchor="start">40</text>
    <text class="number" x="-8" y="40" text-anchor="end">400</text>
    <text class="number" x="148" y="40" text-anchor="start">30</text>
    <text class="number" x="-8" y="60" text-anchor="end">350</text>
    <text class="number" x="148" y="60" text-anchor="start">20</text>
    <text class="number" x="-8" y="80" text-anchor="end">300</text>
    <text class="number" x="148" y="80" text-anchor="start">10</text>
    <text class="number" x="-8" y="100" text-anchor="end">250</text>
    <text class="number" x="148" y="100" text-anchor="start">0</text>
    <text class="number" x="-8" y="120" text-anchor="end">200</text>
    <text class="number" x="148" y="120" text-anchor="start">-10</text>
    <text class="number" x="-8" y="140" text-anchor="end">150</text>
    <text class="number" x="148" y="140" text-anchor="start">-20</text>
    <text class="number" x="-8" y="160" text-anchor="end">100</text>
    <text class="number" x="148" y="160" text-anchor="start">-30</text>
    <text class="number" x="-8" y="180" text-anchor="end">50</text>
    <text class="number" x="148" y="180" text-anchor="start">-40</text>
    <text class="number" x="-8" y="200" text-anchor="end">0</text>
    <text class="number" x="148" y="200" text-anchor="start">-50</text>
    <!--značky měsíců-->
    <text class="month" x="5.83333" y="208">L</text>
    <text class="month" x="17.5" y="208">Ú</text>
    <text class="month" x="29.1667" y="208">B</text>
    <text class="month" x="40.8333" y="208">D</text>
    <text class="month" x="52.5" y="208">K</text>
    <text class="month" x="64.1667" y="208">Č</text>
    <text class="month" x="75.8333" y="208">Č</text>
    <text class="month" x="87.5" y="208">S</text>
    <text class="month" x="99.1667" y="208">Z</text>
    <text class="month" x="110.833" y="208">Ř</text>
    <text class="month" x="122.5" y="208">L</text>
    <text class="month" x="134.167" y="208">P</text>
    <!--popisky os-->
    <text class="label" x="0" y="0" transform="translate(-24 100) rotate(-90)">Srážky [mm]</text>
    <text class="label" x="0" y="0" transform="translate(164 100) rotate(90)">Teplota [°C]</text>
    <text class="label" x="70" y="230" dominant-baseline="hanged">Měsíc</text>
    <!--hlavička-->
    <text class="title" x="70" y="-6" text-anchor="middle">Cfb</text>
    <text class="title"><tspan x="-24" y="-26">191 m</tspan><tspan x="-24" dy="-1em">Praha-Klementinum</tspan></text>
    <text class="year"><tspan x="120" y="-26">472 mm</tspan><tspan x="120" dy="-1.2em">9,5 °C</tspan></text>
</svg>
